<svg xmlns="http://www.w3.org/2000/svg" width="21" height="16"><path fill="#fff" d="M4.71 1a1 1 0 011-1h7.412a1 1 0 011 1v.308a1 1 0 01-1 1H5.71a1 1 0 01-1-1zM0 1a1 1 0 011-1h.353a1 1 0 011 1v.308a1 1 0 01-1 1H1a1 1 0 01-1-1zm4.71 4.62a1 1 0 011-1h7.412a1 1 0 011 1v.308a1 1 0 01-1 1H5.71a1 1 0 01-1-1zM0 5.62a1 1 0 011-1h.353a1 1 0 011 1v.308a1 1 0 01-1 1H1a1 1 0 01-1-1zm4.71 4.61a1 1 0 011-1h7.412a1 1 0 011 1v.308a1 1 0 01-1 1H5.71a1 1 0 01-1-1zm-4.71 0a1 1 0 011-1h.353a1 1 0 011 1v.308a1 1 0 01-1 1H1a1 1 0 01-1-1z"/><path fill="#fff" d="M14.704 15.005c2.924 0 5.294-2.325 5.294-5.193 0-2.867-2.37-5.192-5.294-5.192-2.924 0-5.294 2.325-5.294 5.192 0 2.868 2.37 5.193 5.294 5.193z"/><path fill="none" stroke="#395fc2" stroke-miterlimit="20" stroke-width="2" d="M14.704 15.005c2.924 0 5.294-2.325 5.294-5.193 0-2.867-2.37-5.192-5.294-5.192-2.924 0-5.294 2.325-5.294 5.192 0 2.868 2.37 5.193 5.294 5.193z"/><path fill="none" stroke="#4f7cf1" stroke-linecap="round" stroke-linejoin="round" stroke-miterlimit="20" stroke-width="1.4" d="M12.56 10.238v0l1.576 1.322v0l2.61-3.15v0"/></svg>