<svg xmlns="http://www.w3.org/2000/svg" width="18.133" height="13"><defs><linearGradient id="a" x1=".5" y1=".16" x2=".5" y2=".954" gradientUnits="objectBoundingBox"><stop offset="0" stop-opacity="0"/><stop offset="1" stop-opacity=".502"/></linearGradient><linearGradient id="b" x1=".816" y1="-.283" x2=".816" y2="1" gradientUnits="objectBoundingBox"><stop offset="0" stop-color="#d8d8d8" stop-opacity=".635"/><stop offset="1" stop-color="#fbfbfb" stop-opacity=".012"/><stop offset="1" stop-color="#fcfcfc" stop-opacity="0"/></linearGradient></defs><path d="M-.002 11.282V2a2 2 0 012-2h4a2 2 0 012 2v1h6a1 1 0 011 1v2H5.07a3 3 0 00-2.5 1.336L.204 10.891a2.008 2.008 0 00-.206.391z" fill="#4f7fe5"/><path d="M-.002 11.282V2a2 2 0 012-2h4a2 2 0 012 2v1h6a1 1 0 011 1v2H5.07a3 3 0 00-2.5 1.336L.204 10.891a2.008 2.008 0 00-.206.391z" fill="none"/><path d="M0 11.282V2a2 2 0 012-2h4a2 2 0 012 2v1h6a1 1 0 011 1v2H5.072a3 3 0 00-2.5 1.336L.206 10.891a2.008 2.008 0 00-.206.391z" transform="translate(-.002)" fill="url(#a)" style="mix-blend-mode:soft-light;isolation:isolate"/><path d="M3.406 7.891A2 2 0 015.07 7h12.061a1 1 0 01.832 1.555l-2.667 4a1 1 0 01-.831.445H1.869a1 1 0 01-.832-1.555z" fill="none"/><path d="M3.406 7.891A2 2 0 015.07 7h12.061a1 1 0 01.832 1.555l-2.667 4a1 1 0 01-.831.445H1.869a1 1 0 01-.832-1.555z" fill="#3f6ada"/><path d="M3.406.891A2 2 0 015.07 0h12.061a1 1 0 01.832 1.555l-2.667 4a1 1 0 01-.831.445H1.869a1 1 0 01-.832-1.555z" transform="translate(0 7)" fill="url(#b)" style="mix-blend-mode:soft-light;isolation:isolate"/></svg>