<svg xmlns="http://www.w3.org/2000/svg" width="15" height="13"><defs><linearGradient id="a" x1=".816" y1="-.283" x2=".816" y2="1" gradientUnits="objectBoundingBox"><stop offset="0" stop-color="#d8d8d8" stop-opacity=".635"/><stop offset="1" stop-color="#fbfbfb" stop-opacity=".012"/><stop offset="1" stop-color="#fcfcfc" stop-opacity="0"/></linearGradient><linearGradient id="b" x1=".5" y1=".325" x2=".5" y2="1.128" gradientUnits="objectBoundingBox"><stop offset="0" stop-opacity="0"/><stop offset="1" stop-opacity=".502"/></linearGradient></defs><path d="M0 3h14a1 1 0 011 1v8a1 1 0 01-1 1H1a1 1 0 01-1-1V3z" fill="none"/><path d="M0 3h14a1 1 0 011 1v8a1 1 0 01-1 1H1a1 1 0 01-1-1V3z" fill="#96b8e1"/><path d="M0 0h14a1 1 0 011 1v8a1 1 0 01-1 1H1a1 1 0 01-1-1V0z" transform="translate(0 3)" fill="url(#a)" style="mix-blend-mode:soft-light;isolation:isolate"/><path d="M2 0h4a2 2 0 012 2v1H0V2a2 2 0 012-2z" fill="#98bce1"/><path d="M2 0h4a2 2 0 012 2v1H0V2a2 2 0 012-2z" fill="none"/><path d="M2 0h4a2 2 0 012 2v1H0V2a2 2 0 012-2z" fill="url(#b)" style="mix-blend-mode:soft-light;isolation:isolate"/></svg>