<svg xmlns="http://www.w3.org/2000/svg" width="44" height="45"><path fill="#fff" d="M40.33 30.163c0 5.055-4.112 9.167-9.167 9.167s-9.166-4.112-9.166-9.167 4.111-9.166 9.166-9.166c5.055 0 9.167 4.111 9.167 9.166zm1.667 0c0-5.973-4.86-10.833-10.834-10.833-5.973 0-10.833 4.86-10.833 10.833 0 5.974 4.86 10.834 10.833 10.834 5.974 0 10.834-4.86 10.834-10.834z"/><path fill="none" stroke="#fff" stroke-miterlimit="20" stroke-width=".5" d="M40.33 30.163c0 5.055-4.112 9.167-9.167 9.167s-9.166-4.112-9.166-9.167 4.111-9.166 9.166-9.166c5.055 0 9.167 4.111 9.167 9.166zm1.667 0c0-5.973-4.86-10.833-10.834-10.833-5.973 0-10.833 4.86-10.833 10.833 0 5.974 4.86 10.834 10.833 10.834 5.974 0 10.834-4.86 10.834-10.834z"/><path fill="#fff" d="M29.497 34.334a.842.842 0 01-.59-.243l-3.333-3.333a.834.834 0 011.178-1.179l2.703 2.704 5.247-5.997a.834.834 0 111.255 1.098l-5.833 6.667a.831.831 0 01-.6.283h-.027z"/><path fill="none" stroke="#fff" stroke-miterlimit="20" stroke-width=".5" d="M29.497 34.334a.842.842 0 01-.59-.243l-3.333-3.333a.834.834 0 011.178-1.179l2.703 2.704v0l5.247-5.997a.834.834 0 111.255 1.098l-5.833 6.667a.831.831 0 01-.6.283h-.027z"/><path fill="#fff" d="M16.167 36h-10A4.172 4.172 0 012 31.833V5.167A4.172 4.172 0 016.167 1H24.5a4.172 4.172 0 014.167 4.167v10a.834.834 0 01-1.667 0v-10c0-1.379-1.122-2.5-2.5-2.5H6.167a2.503 2.503 0 00-2.5 2.5v26.666c0 1.379 1.121 2.5 2.5 2.5h10a.834.834 0 010 1.667z"/><path fill="none" stroke="#fff" stroke-miterlimit="20" stroke-width=".5" d="M16.167 36h-10A4.172 4.172 0 012 31.833V5.167A4.172 4.172 0 016.167 1H24.5a4.172 4.172 0 014.167 4.167v10a.834.834 0 01-1.667 0v-10c0-1.379-1.122-2.5-2.5-2.5H6.167a2.503 2.503 0 00-2.5 2.5v26.666c0 1.379 1.121 2.5 2.5 2.5h10a.834.834 0 010 1.667z"/><path fill="#fff" d="M17.833 24.147a.834.834 0 01-.833-.834v-13.15c0-.46.373-.833.833-.833h5c.46 0 .834.373.834.833v7.534a.834.834 0 01-1.667 0v-6.7h-3.333v12.316a.833.833 0 01-.834.834z"/><path fill="none" stroke="#fff" stroke-miterlimit="20" stroke-width=".5" d="M17.833 24.147a.834.834 0 01-.833-.834v-13.15c0-.46.373-.833.833-.833h5c.46 0 .834.373.834.833v7.534a.834.834 0 01-1.667 0v-6.7 0h-3.333v12.316a.833.833 0 01-.834.834z"/><path fill="#fff" d="M8.667 17.667H12v6.656H8.667zm5 7.5v-8.334a.834.834 0 00-.834-.833h-5a.834.834 0 00-.833.833v8.334c0 .46.373.833.833.833h5c.46 0 .834-.373.834-.833z"/><path fill="none" stroke="#fff" stroke-miterlimit="20" stroke-width=".5" d="M8.667 17.667H12v6.656H8.667zm5 7.5v-8.334a.834.834 0 00-.834-.833h-5a.834.834 0 00-.833.833v8.334c0 .46.373.833.833.833h5c.46 0 .834-.373.834-.833z"/><path fill="#fff" d="M17.03 25.997H6.163a.834.834 0 010-1.667H17.03a.834.834 0 010 1.667z"/><path fill="none" stroke="#fff" stroke-miterlimit="20" stroke-width=".5" d="M17.03 25.997H6.163a.834.834 0 010-1.667H17.03a.834.834 0 010 1.667z"/></svg>