<svg xmlns="http://www.w3.org/2000/svg" width="23" height="22"><path d="M21.59 17.932a.127.127 0 01-.136.03l-4.162-1.39a.702.702 0 00-.543.042 8.557 8.557 0 01-3.883.937h-.013c-4.531 0-8.274-3.577-8.345-7.979-.037-2.216.831-4.3 2.443-5.866 1.612-1.566 3.756-2.41 6.037-2.374 4.535.07 8.218 3.713 8.21 8.122a7.943 7.943 0 01-.963 3.773.648.648 0 00-.043.527l1.43 4.044a.118.118 0 01-.031.134zM7.392 20.37h-.009a5.86 5.86 0 01-2.66-.641.703.703 0 00-.542-.042l-2.745.917.943-2.668a.648.648 0 00-.042-.527 5.438 5.438 0 01-.66-2.584 5.46 5.46 0 011.59-3.846c.331 1.96 1.293 3.767 2.783 5.19a9.77 9.77 0 005.346 2.605 5.78 5.78 0 01-4.004 1.596zm15.526-3.005l-1.336-3.778a9.25 9.25 0 00.987-4.132c.004-2.489-.987-4.842-2.79-6.626A9.786 9.786 0 0013.01.002c-2.655-.041-5.15.94-7.027 2.763-1.81 1.758-2.813 4.076-2.844 6.552C1.355 10.622.303 12.656.306 14.828A6.746 6.746 0 00.99 17.77l-.92 2.602c-.158.448-.043.933.301 1.268a1.274 1.274 0 001.305.293l2.677-.894c.94.433 1.98.662 3.027.664h.011a7.136 7.136 0 005.716-2.825 9.976 9.976 0 004.014-.955l3.888 1.299c.162.054.328.08.492.08.39 0 .77-.149 1.058-.429a1.42 1.42 0 00.358-1.506z"/><path d="M16.93 5.915H8.776a.675.675 0 00-.685.665c0 .368.306.665.685.665h8.156a.675.675 0 00.684-.665.675.675 0 00-.684-.665zm0 2.735H8.776a.675.675 0 00-.685.666c0 .367.306.665.685.665h8.156a.675.675 0 00.684-.665.675.675 0 00-.684-.665zm-3.139 2.736H8.774a.675.675 0 00-.684.665c0 .368.306.666.685.666h5.016a.675.675 0 00.685-.666.675.675 0 00-.685-.665z"/></svg>